<svg xmlns="http://www.w3.org/2000/svg" xmlns:xlink="http://www.w3.org/1999/xlink" width="64" height="64" viewBox="0 0 64 64"><defs><linearGradient id="a"><stop offset="0" stop-color="#7abcff"/><stop offset=".44" stop-color="#60abf8"/><stop offset="1" stop-color="#4096ee"/></linearGradient><linearGradient xlink:href="#a" id="b" x1="512" y1="508.362" x2="512" y2="572.362" gradientUnits="userSpaceOnUse"/></defs><g transform="translate(-480 -508.362)" fill="url(#b)"><path d="M542.114 540.362A30.114 30.114 0 0 1 512 570.476a30.114 30.114 0 0 1-30.114-30.114A30.114 30.114 0 0 1 512 510.248a30.114 30.114 0 0 1 30.114 30.114z"/><path d="M528.368 524.362a3.636 3.2 0 0 1 0 6.4h-32.73a3.636 3.2 0 0 1 0-6.4zM528.368 537.162a3.636 3.2 0 0 1 0 6.4h-32.73a3.636 3.2 0 0 1 0-6.4zM528.368 549.962a3.636 3.2 0 0 1 0 6.4h-32.73a3.636 3.2 0 0 1 0-6.4z" fill="#345"/></g></svg>