<svg xmlns="http://www.w3.org/2000/svg" xmlns:xlink="http://www.w3.org/1999/xlink" width="64" height="64" viewBox="0 0 64 64"><defs><linearGradient id="a"><stop offset="0" stop-color="#7abcff"/><stop offset=".44" stop-color="#60abf8"/><stop offset="1" stop-color="#4096ee"/></linearGradient><linearGradient xlink:href="#a" id="b" x1="-1720" y1="292.362" x2="-1720" y2="162.362" gradientUnits="userSpaceOnUse" gradientTransform="rotate(180 0 108.362)"/><linearGradient xlink:href="#a" id="c" gradientUnits="userSpaceOnUse" gradientTransform="rotate(180 0 236.362)" x1="-1720" y1="292.362" x2="-1720" y2="162.362"/><linearGradient xlink:href="#a" id="d" gradientUnits="userSpaceOnUse" gradientTransform="rotate(180 0 364.362)" x1="-1720" y1="292.362" x2="-1720" y2="162.362"/></defs><g transform="translate(-480 -508.362)"><circle cx="512" cy="540.362" r="30.114" fill="#fff"/><path d="M2040-75.638a64 64 0 0 1 0 128h-576a64 64 0 0 1 0-128z" fill="url(#b)" transform="matrix(.05682 0 0 .05 412.455 528.144)"/><path d="M2040 180.362a64 64 0 0 1 0 128h-576a64 64 0 0 1 0-128z" fill="url(#c)" transform="matrix(.05682 0 0 .05 412.455 528.144)"/><path d="M2040 436.362a64 64 0 0 1 0 128h-576a64 64 0 0 1 0-128z" fill="url(#d)" transform="matrix(.05682 0 0 .05 412.455 528.144)"/></g></svg>