<svg xmlns="http://www.w3.org/2000/svg" width="300" height="300"><defs><linearGradient id="a" gradientUnits="userSpaceOnUse" y1="-60" x2="51.962" y2="-30"><stop offset="0%" stop-color="#0E59A4"/><stop offset="100%" stop-color="#1E68B2"/></linearGradient><linearGradient id="b" gradientUnits="userSpaceOnUse" x1="51.962" y1="-30" x2="51.962" y2="30"><stop offset="0%" stop-color="#1E68B2"/><stop offset="100%" stop-color="#2D77C0"/></linearGradient><linearGradient id="c" gradientUnits="userSpaceOnUse" x1="51.962" y1="30" x2="0" y2="60"><stop offset="0%" stop-color="#2D77C0"/><stop offset="100%" stop-color="#3D86CF"/></linearGradient><linearGradient id="d" gradientUnits="userSpaceOnUse" y1="60" x2="-51.962" y2="30"><stop offset="0%" stop-color="#3D86CF"/><stop offset="100%" stop-color="#4D94DD"/></linearGradient><linearGradient id="e" gradientUnits="userSpaceOnUse" x1="-51.962" y1="30" x2="-51.962" y2="-30"><stop offset="0%" stop-color="#4D94DD"/><stop offset="100%" stop-color="#5CA3EB"/></linearGradient><linearGradient id="f" gradientUnits="userSpaceOnUse" x1="-51.962" y1="-30" x2="0" y2="-60"><stop offset="0%" stop-color="#5CA3EB"/><stop offset="100%" stop-color="#6CB2F9"/></linearGradient></defs><path d="M0-120a120 120 0 0 1 104.222 60.52l-52.11 29.74A60 60 0 0 0 0-60z" fill="url(#a)" transform="translate(150 150)"/><path d="M103.923-60a120 120 0 0 1-.3 120.52L51.81 30.26A60 60 0 0 0 51.963-30z" fill="url(#b)" transform="translate(150 150)"/><path d="M103.923 60A120 120 0 0 1-.6 120l.3-60a60 60 0 0 0 52.262-30z" fill="url(#c)" transform="translate(150 150)"/><path d="M0 120a120 120 0 0 1-104.222-60.52l52.11-29.74A60 60 0 0 0 0 60z" fill="url(#d)" transform="translate(150 150)"/><path d="M-103.923 60a120 120 0 0 1 .3-120.52l51.812 30.26A60 60 0 0 0-51.963 30z" fill="url(#e)" transform="translate(150 150)"/><path d="M-103.923-60A120 120 0 0 1 .6-120L.3-60a60 60 0 0 0-52.262 30z" fill="url(#f)" transform="translate(150 150)"/></svg>