<svg xmlns="http://www.w3.org/2000/svg" width="256" height="256" viewBox="0 0 256.00001 256"><path d="M131.93 12.984a97.085 97.008 0 0 0-96.946 93.07l59.722 6.763a37.34 37.31 0 0 1-.117-2.824 37.34 37.31 0 0 1 37.34-37.312 37.34 37.31 0 0 1 37.342 37.313 37.34 37.31 0 0 1-37.34 37.31 37.34 37.31 0 0 1-7.005-.712v-31.404L60.83 176.912l64.097 66.105v-36.382a97.085 97.008 0 0 0 7.004.366 97.085 97.008 0 0 0 97.086-97.007 97.085 97.008 0 0 0-97.085-97.01z" opacity=".97" fill="#78a777" stroke="#2b5729" stroke-width="9.968" stroke-linejoin="round" stroke-opacity=".998"/></svg>